<mxfile host="app.diagrams.net" modified="2023-11-16T18:12:14.190Z" agent="Mozilla/5.0 (Windows NT 10.0; Win64; x64) AppleWebKit/537.36 (KHTML, like Gecko) Chrome/119.0.0.0 Safari/537.36" etag="0f03Vmngx4-NMm16VwMd" version="22.1.2" type="device" pages="3">
  <diagram name="Registration" id="srzLS20Qa_aBFwLEf8M7">
    <mxGraphModel dx="842" dy="508" grid="1" gridSize="10" guides="1" tooltips="1" connect="1" arrows="1" fold="1" page="1" pageScale="1" pageWidth="1654" pageHeight="1169" math="0" shadow="0">
      <root>
        <mxCell id="0" />
        <mxCell id="1" parent="0" />
        <mxCell id="3n5UKX3MThR7Htjxk78X-1" value="" style="rounded=0;whiteSpace=wrap;html=1;fillColor=none;" vertex="1" parent="1">
          <mxGeometry x="760" y="330" width="450" height="340" as="geometry" />
        </mxCell>
        <mxCell id="7tteN8mUdfvHgw5nfcFA-14" value="&amp;lt;&amp;lt;initiate&amp;gt;&amp;gt;" style="edgeStyle=orthogonalEdgeStyle;rounded=0;orthogonalLoop=1;jettySize=auto;html=1;" edge="1" parent="1" source="j-cfCe8lvuW-chjg4PW4-1" target="7tteN8mUdfvHgw5nfcFA-1">
          <mxGeometry relative="1" as="geometry" />
        </mxCell>
        <mxCell id="j-cfCe8lvuW-chjg4PW4-1" value="Unregistered EDU" style="shape=umlActor;verticalLabelPosition=bottom;verticalAlign=top;html=1;outlineConnect=0;" parent="1" vertex="1">
          <mxGeometry x="600" y="390" width="30" height="60" as="geometry" />
        </mxCell>
        <mxCell id="7tteN8mUdfvHgw5nfcFA-1" value="Register as an&lt;br&gt;educator" style="ellipse;whiteSpace=wrap;html=1;" vertex="1" parent="1">
          <mxGeometry x="810" y="380" width="120" height="80" as="geometry" />
        </mxCell>
        <mxCell id="7tteN8mUdfvHgw5nfcFA-15" value="&amp;lt;&amp;lt;initiate&amp;gt;&amp;gt;" style="edgeStyle=orthogonalEdgeStyle;rounded=0;orthogonalLoop=1;jettySize=auto;html=1;" edge="1" parent="1" source="7tteN8mUdfvHgw5nfcFA-3" target="7tteN8mUdfvHgw5nfcFA-4">
          <mxGeometry relative="1" as="geometry" />
        </mxCell>
        <mxCell id="7tteN8mUdfvHgw5nfcFA-3" value="Unregistered EDU" style="shape=umlActor;verticalLabelPosition=bottom;verticalAlign=top;html=1;outlineConnect=0;" vertex="1" parent="1">
          <mxGeometry x="600" y="550" width="30" height="60" as="geometry" />
        </mxCell>
        <mxCell id="7tteN8mUdfvHgw5nfcFA-4" value="Register as a&lt;br&gt;student" style="ellipse;whiteSpace=wrap;html=1;" vertex="1" parent="1">
          <mxGeometry x="810" y="540" width="120" height="80" as="geometry" />
        </mxCell>
        <mxCell id="7tteN8mUdfvHgw5nfcFA-5" value="Register" style="ellipse;whiteSpace=wrap;html=1;" vertex="1" parent="1">
          <mxGeometry x="1060" y="460" width="120" height="80" as="geometry" />
        </mxCell>
        <mxCell id="QxrqZ0-VKWYVItdguQVS-1" value="" style="endArrow=block;endSize=16;endFill=0;html=1;rounded=0;" edge="1" parent="1" source="7tteN8mUdfvHgw5nfcFA-4" target="7tteN8mUdfvHgw5nfcFA-5">
          <mxGeometry x="0.3241" y="-39" width="160" relative="1" as="geometry">
            <mxPoint x="880" y="510" as="sourcePoint" />
            <mxPoint x="1040" y="510" as="targetPoint" />
            <Array as="points">
              <mxPoint x="980" y="580" />
              <mxPoint x="980" y="500" />
            </Array>
            <mxPoint as="offset" />
          </mxGeometry>
        </mxCell>
        <mxCell id="QxrqZ0-VKWYVItdguQVS-3" value="" style="endArrow=block;endSize=16;endFill=0;html=1;rounded=0;" edge="1" parent="1" source="7tteN8mUdfvHgw5nfcFA-1" target="7tteN8mUdfvHgw5nfcFA-5">
          <mxGeometry width="160" relative="1" as="geometry">
            <mxPoint x="770" y="520" as="sourcePoint" />
            <mxPoint x="930" y="520" as="targetPoint" />
            <Array as="points">
              <mxPoint x="980" y="420" />
              <mxPoint x="980" y="500" />
            </Array>
          </mxGeometry>
        </mxCell>
        <mxCell id="3n5UKX3MThR7Htjxk78X-2" value="&lt;b&gt;CKB Platform&lt;/b&gt;" style="text;html=1;strokeColor=none;fillColor=none;align=center;verticalAlign=middle;whiteSpace=wrap;rounded=0;" vertex="1" parent="1">
          <mxGeometry x="760" y="330" width="450" height="30" as="geometry" />
        </mxCell>
      </root>
    </mxGraphModel>
  </diagram>
  <diagram id="x7_6fG5JYsLXcmyBagEX" name="EDU">
    <mxGraphModel dx="2220" dy="1340" grid="1" gridSize="10" guides="1" tooltips="1" connect="1" arrows="1" fold="1" page="1" pageScale="1" pageWidth="1654" pageHeight="1169" math="0" shadow="0">
      <root>
        <mxCell id="0" />
        <mxCell id="1" parent="0" />
        <mxCell id="kZ3w0gIFsznD52W-j2P6-8" value="" style="rounded=0;whiteSpace=wrap;html=1;fillColor=none;" vertex="1" parent="1">
          <mxGeometry x="480" y="160" width="480" height="780" as="geometry" />
        </mxCell>
        <mxCell id="vXhXu7st5bK3MeT6ZreA-14" style="rounded=0;orthogonalLoop=1;jettySize=auto;html=1;exitX=1;exitY=0.5;exitDx=0;exitDy=0;dashed=1;" edge="1" parent="1" source="vXhXu7st5bK3MeT6ZreA-1" target="vXhXu7st5bK3MeT6ZreA-7">
          <mxGeometry relative="1" as="geometry" />
        </mxCell>
        <mxCell id="vXhXu7st5bK3MeT6ZreA-21" value="&amp;lt;&amp;lt;extend&amp;gt;&amp;gt;" style="rounded=0;orthogonalLoop=1;jettySize=auto;html=1;exitX=1;exitY=0.5;exitDx=0;exitDy=0;dashed=1;" edge="1" parent="1" source="vXhXu7st5bK3MeT6ZreA-1" target="vXhXu7st5bK3MeT6ZreA-8">
          <mxGeometry relative="1" as="geometry" />
        </mxCell>
        <mxCell id="kZ3w0gIFsznD52W-j2P6-17" style="edgeStyle=orthogonalEdgeStyle;rounded=0;orthogonalLoop=1;jettySize=auto;html=1;" edge="1" parent="1" source="vXhXu7st5bK3MeT6ZreA-1" target="kZ3w0gIFsznD52W-j2P6-9">
          <mxGeometry relative="1" as="geometry" />
        </mxCell>
        <mxCell id="vXhXu7st5bK3MeT6ZreA-1" value="Create tournament" style="ellipse;whiteSpace=wrap;html=1;" vertex="1" parent="1">
          <mxGeometry x="560" y="240" width="120" height="80" as="geometry" />
        </mxCell>
        <mxCell id="vXhXu7st5bK3MeT6ZreA-17" style="rounded=0;orthogonalLoop=1;jettySize=auto;html=1;exitX=1;exitY=0.5;exitDx=0;exitDy=0;dashed=1;" edge="1" parent="1" source="vXhXu7st5bK3MeT6ZreA-2" target="vXhXu7st5bK3MeT6ZreA-7">
          <mxGeometry relative="1" as="geometry" />
        </mxCell>
        <mxCell id="vXhXu7st5bK3MeT6ZreA-27" value="&amp;lt;&amp;lt;extend&amp;gt;&amp;gt;" style="edgeStyle=none;rounded=0;orthogonalLoop=1;jettySize=auto;html=1;exitX=1;exitY=0.5;exitDx=0;exitDy=0;dashed=1;" edge="1" parent="1" source="vXhXu7st5bK3MeT6ZreA-2" target="vXhXu7st5bK3MeT6ZreA-10">
          <mxGeometry relative="1" as="geometry" />
        </mxCell>
        <mxCell id="kZ3w0gIFsznD52W-j2P6-21" style="edgeStyle=orthogonalEdgeStyle;rounded=0;orthogonalLoop=1;jettySize=auto;html=1;" edge="1" parent="1" source="vXhXu7st5bK3MeT6ZreA-2" target="kZ3w0gIFsznD52W-j2P6-9">
          <mxGeometry relative="1" as="geometry" />
        </mxCell>
        <mxCell id="vXhXu7st5bK3MeT6ZreA-2" value="Create battle" style="ellipse;whiteSpace=wrap;html=1;" vertex="1" parent="1">
          <mxGeometry x="560" y="720" width="120" height="80" as="geometry" />
        </mxCell>
        <mxCell id="vXhXu7st5bK3MeT6ZreA-16" style="rounded=0;orthogonalLoop=1;jettySize=auto;html=1;exitX=1;exitY=0.5;exitDx=0;exitDy=0;dashed=1;" edge="1" parent="1" source="vXhXu7st5bK3MeT6ZreA-3" target="vXhXu7st5bK3MeT6ZreA-7">
          <mxGeometry relative="1" as="geometry" />
        </mxCell>
        <mxCell id="vXhXu7st5bK3MeT6ZreA-26" value="&amp;lt;&amp;lt;extend&amp;gt;&amp;gt;" style="edgeStyle=none;rounded=0;orthogonalLoop=1;jettySize=auto;html=1;exitX=1;exitY=0.5;exitDx=0;exitDy=0;dashed=1;" edge="1" parent="1" source="vXhXu7st5bK3MeT6ZreA-3" target="vXhXu7st5bK3MeT6ZreA-10">
          <mxGeometry relative="1" as="geometry" />
        </mxCell>
        <mxCell id="kZ3w0gIFsznD52W-j2P6-20" style="edgeStyle=orthogonalEdgeStyle;rounded=0;orthogonalLoop=1;jettySize=auto;html=1;" edge="1" parent="1" source="vXhXu7st5bK3MeT6ZreA-3" target="kZ3w0gIFsznD52W-j2P6-9">
          <mxGeometry relative="1" as="geometry" />
        </mxCell>
        <mxCell id="vXhXu7st5bK3MeT6ZreA-3" value="Share permission" style="ellipse;whiteSpace=wrap;html=1;" vertex="1" parent="1">
          <mxGeometry x="560" y="600" width="120" height="80" as="geometry" />
        </mxCell>
        <mxCell id="vXhXu7st5bK3MeT6ZreA-18" style="rounded=0;orthogonalLoop=1;jettySize=auto;html=1;exitX=1;exitY=0.5;exitDx=0;exitDy=0;dashed=1;" edge="1" parent="1" source="vXhXu7st5bK3MeT6ZreA-4" target="vXhXu7st5bK3MeT6ZreA-7">
          <mxGeometry relative="1" as="geometry" />
        </mxCell>
        <mxCell id="kZ3w0gIFsznD52W-j2P6-22" style="edgeStyle=orthogonalEdgeStyle;rounded=0;orthogonalLoop=1;jettySize=auto;html=1;" edge="1" parent="1" source="vXhXu7st5bK3MeT6ZreA-4" target="kZ3w0gIFsznD52W-j2P6-9">
          <mxGeometry relative="1" as="geometry" />
        </mxCell>
        <mxCell id="vXhXu7st5bK3MeT6ZreA-4" value="Manual evaluation" style="ellipse;whiteSpace=wrap;html=1;" vertex="1" parent="1">
          <mxGeometry x="560" y="840" width="120" height="80" as="geometry" />
        </mxCell>
        <mxCell id="vXhXu7st5bK3MeT6ZreA-15" style="rounded=0;orthogonalLoop=1;jettySize=auto;html=1;exitX=1;exitY=0.5;exitDx=0;exitDy=0;dashed=1;" edge="1" parent="1" source="vXhXu7st5bK3MeT6ZreA-5" target="vXhXu7st5bK3MeT6ZreA-7">
          <mxGeometry relative="1" as="geometry" />
        </mxCell>
        <mxCell id="vXhXu7st5bK3MeT6ZreA-24" value="&amp;lt;&amp;lt;extend&amp;gt;&amp;gt;" style="edgeStyle=none;rounded=0;orthogonalLoop=1;jettySize=auto;html=1;exitX=1;exitY=0.5;exitDx=0;exitDy=0;dashed=1;" edge="1" parent="1" source="vXhXu7st5bK3MeT6ZreA-5" target="vXhXu7st5bK3MeT6ZreA-8">
          <mxGeometry relative="1" as="geometry" />
        </mxCell>
        <mxCell id="kZ3w0gIFsznD52W-j2P6-18" style="edgeStyle=orthogonalEdgeStyle;rounded=0;orthogonalLoop=1;jettySize=auto;html=1;" edge="1" parent="1" source="vXhXu7st5bK3MeT6ZreA-5" target="kZ3w0gIFsznD52W-j2P6-9">
          <mxGeometry relative="1" as="geometry" />
        </mxCell>
        <mxCell id="vXhXu7st5bK3MeT6ZreA-5" value="Close tournament" style="ellipse;whiteSpace=wrap;html=1;" vertex="1" parent="1">
          <mxGeometry x="560" y="360" width="120" height="80" as="geometry" />
        </mxCell>
        <mxCell id="vXhXu7st5bK3MeT6ZreA-19" style="rounded=0;orthogonalLoop=1;jettySize=auto;html=1;dashed=1;exitX=1;exitY=0.5;exitDx=0;exitDy=0;" edge="1" parent="1" source="vXhXu7st5bK3MeT6ZreA-6" target="vXhXu7st5bK3MeT6ZreA-7">
          <mxGeometry relative="1" as="geometry" />
        </mxCell>
        <mxCell id="vXhXu7st5bK3MeT6ZreA-25" value="&amp;lt;&amp;lt;extend&amp;gt;&amp;gt;" style="edgeStyle=none;rounded=0;orthogonalLoop=1;jettySize=auto;html=1;exitX=1;exitY=0.5;exitDx=0;exitDy=0;dashed=1;" edge="1" parent="1" source="vXhXu7st5bK3MeT6ZreA-6" target="vXhXu7st5bK3MeT6ZreA-8">
          <mxGeometry relative="1" as="geometry" />
        </mxCell>
        <mxCell id="kZ3w0gIFsznD52W-j2P6-19" style="edgeStyle=orthogonalEdgeStyle;rounded=0;orthogonalLoop=1;jettySize=auto;html=1;" edge="1" parent="1" source="vXhXu7st5bK3MeT6ZreA-6" target="kZ3w0gIFsznD52W-j2P6-9">
          <mxGeometry relative="1" as="geometry" />
        </mxCell>
        <mxCell id="kZ3w0gIFsznD52W-j2P6-23" value="&amp;lt;&amp;lt;participate&amp;gt;&amp;gt;" style="edgeLabel;html=1;align=center;verticalAlign=middle;resizable=0;points=[];" vertex="1" connectable="0" parent="kZ3w0gIFsznD52W-j2P6-19">
          <mxGeometry x="0.7379" relative="1" as="geometry">
            <mxPoint as="offset" />
          </mxGeometry>
        </mxCell>
        <mxCell id="vXhXu7st5bK3MeT6ZreA-6" value="Create a new badge" style="ellipse;whiteSpace=wrap;html=1;" vertex="1" parent="1">
          <mxGeometry x="560" y="480" width="120" height="80" as="geometry" />
        </mxCell>
        <mxCell id="vXhXu7st5bK3MeT6ZreA-7" value="Login" style="ellipse;whiteSpace=wrap;html=1;" vertex="1" parent="1">
          <mxGeometry x="800" y="840" width="120" height="80" as="geometry" />
        </mxCell>
        <mxCell id="vXhXu7st5bK3MeT6ZreA-8" value="View tournaments" style="ellipse;whiteSpace=wrap;html=1;" vertex="1" parent="1">
          <mxGeometry x="790" y="300" width="120" height="80" as="geometry" />
        </mxCell>
        <mxCell id="vXhXu7st5bK3MeT6ZreA-10" value="View battles&lt;br&gt;within a tournament" style="ellipse;whiteSpace=wrap;html=1;" vertex="1" parent="1">
          <mxGeometry x="790" y="540" width="120" height="80" as="geometry" />
        </mxCell>
        <mxCell id="vXhXu7st5bK3MeT6ZreA-20" value="&amp;lt;&amp;lt;include&amp;gt;&amp;gt;" style="text;html=1;align=center;verticalAlign=middle;resizable=0;points=[];autosize=1;strokeColor=none;fillColor=none;container=1;" vertex="1" parent="1">
          <mxGeometry x="750" y="810" width="90" height="30" as="geometry" />
        </mxCell>
        <mxCell id="kZ3w0gIFsznD52W-j2P6-1" style="edgeStyle=none;rounded=0;orthogonalLoop=1;jettySize=auto;html=1;entryX=0;entryY=1;entryDx=0;entryDy=0;" edge="1" parent="1" source="vXhXu7st5bK3MeT6ZreA-29" target="vXhXu7st5bK3MeT6ZreA-1">
          <mxGeometry relative="1" as="geometry" />
        </mxCell>
        <mxCell id="kZ3w0gIFsznD52W-j2P6-2" style="edgeStyle=none;rounded=0;orthogonalLoop=1;jettySize=auto;html=1;" edge="1" parent="1" source="vXhXu7st5bK3MeT6ZreA-29" target="vXhXu7st5bK3MeT6ZreA-5">
          <mxGeometry relative="1" as="geometry" />
        </mxCell>
        <mxCell id="kZ3w0gIFsznD52W-j2P6-4" style="edgeStyle=none;rounded=0;orthogonalLoop=1;jettySize=auto;html=1;" edge="1" parent="1" source="vXhXu7st5bK3MeT6ZreA-29" target="vXhXu7st5bK3MeT6ZreA-3">
          <mxGeometry relative="1" as="geometry" />
        </mxCell>
        <mxCell id="kZ3w0gIFsznD52W-j2P6-5" style="edgeStyle=none;rounded=0;orthogonalLoop=1;jettySize=auto;html=1;" edge="1" parent="1" source="vXhXu7st5bK3MeT6ZreA-29" target="vXhXu7st5bK3MeT6ZreA-2">
          <mxGeometry relative="1" as="geometry" />
        </mxCell>
        <mxCell id="kZ3w0gIFsznD52W-j2P6-6" style="edgeStyle=none;rounded=0;orthogonalLoop=1;jettySize=auto;html=1;" edge="1" parent="1" source="vXhXu7st5bK3MeT6ZreA-29" target="vXhXu7st5bK3MeT6ZreA-4">
          <mxGeometry relative="1" as="geometry" />
        </mxCell>
        <mxCell id="vXhXu7st5bK3MeT6ZreA-29" value="EDU" style="shape=umlActor;verticalLabelPosition=bottom;verticalAlign=top;html=1;outlineConnect=0;" vertex="1" parent="1">
          <mxGeometry x="320" y="525" width="30" height="60" as="geometry" />
        </mxCell>
        <mxCell id="kZ3w0gIFsznD52W-j2P6-3" style="edgeStyle=none;rounded=0;orthogonalLoop=1;jettySize=auto;html=1;entryX=0.029;entryY=0.598;entryDx=0;entryDy=0;entryPerimeter=0;" edge="1" parent="1" source="vXhXu7st5bK3MeT6ZreA-29" target="vXhXu7st5bK3MeT6ZreA-6">
          <mxGeometry relative="1" as="geometry" />
        </mxCell>
        <mxCell id="kZ3w0gIFsznD52W-j2P6-7" value="&amp;lt;&amp;lt;initiate&amp;gt;&amp;gt;" style="text;html=1;align=center;verticalAlign=middle;resizable=0;points=[];autosize=1;strokeColor=none;fillColor=none;" vertex="1" parent="1">
          <mxGeometry x="355" y="548" width="90" height="30" as="geometry" />
        </mxCell>
        <mxCell id="kZ3w0gIFsznD52W-j2P6-9" value="Notification" style="shape=umlActor;verticalLabelPosition=bottom;verticalAlign=top;html=1;outlineConnect=0;" vertex="1" parent="1">
          <mxGeometry x="510" width="30" height="60" as="geometry" />
        </mxCell>
        <mxCell id="fWFH-ToMUnWvXF-jXVWC-1" value="&lt;b&gt;CKB Platform&lt;/b&gt;" style="text;html=1;strokeColor=none;fillColor=none;align=center;verticalAlign=middle;whiteSpace=wrap;rounded=0;" vertex="1" parent="1">
          <mxGeometry x="480" y="160" width="480" height="30" as="geometry" />
        </mxCell>
      </root>
    </mxGraphModel>
  </diagram>
  <diagram name="STU" id="B0Cp8KLIZwKWbMuR-9u8">
    <mxGraphModel dx="1110" dy="670" grid="1" gridSize="10" guides="1" tooltips="1" connect="1" arrows="1" fold="1" page="1" pageScale="1" pageWidth="1654" pageHeight="1169" math="0" shadow="0">
      <root>
        <mxCell id="gUMU8_1j_iVRHIKr8QmO-0" />
        <mxCell id="gUMU8_1j_iVRHIKr8QmO-1" parent="gUMU8_1j_iVRHIKr8QmO-0" />
        <mxCell id="gUMU8_1j_iVRHIKr8QmO-3" style="rounded=0;orthogonalLoop=1;jettySize=auto;html=1;exitX=1;exitY=0.5;exitDx=0;exitDy=0;dashed=1;" edge="1" parent="gUMU8_1j_iVRHIKr8QmO-1" source="gUMU8_1j_iVRHIKr8QmO-6" target="gUMU8_1j_iVRHIKr8QmO-27">
          <mxGeometry relative="1" as="geometry" />
        </mxCell>
        <mxCell id="gUMU8_1j_iVRHIKr8QmO-4" value="&amp;lt;&amp;lt;extend&amp;gt;&amp;gt;" style="rounded=0;orthogonalLoop=1;jettySize=auto;html=1;exitX=1;exitY=0.5;exitDx=0;exitDy=0;dashed=1;" edge="1" parent="gUMU8_1j_iVRHIKr8QmO-1" source="gUMU8_1j_iVRHIKr8QmO-6" target="gUMU8_1j_iVRHIKr8QmO-28">
          <mxGeometry relative="1" as="geometry" />
        </mxCell>
        <mxCell id="gUMU8_1j_iVRHIKr8QmO-5" style="edgeStyle=orthogonalEdgeStyle;rounded=0;orthogonalLoop=1;jettySize=auto;html=1;" edge="1" parent="gUMU8_1j_iVRHIKr8QmO-1" source="gUMU8_1j_iVRHIKr8QmO-6" target="gUMU8_1j_iVRHIKr8QmO-39">
          <mxGeometry relative="1" as="geometry" />
        </mxCell>
        <mxCell id="gUMU8_1j_iVRHIKr8QmO-6" value="Subscribe to a tournament" style="ellipse;whiteSpace=wrap;html=1;" vertex="1" parent="gUMU8_1j_iVRHIKr8QmO-1">
          <mxGeometry x="560" y="480" width="120" height="80" as="geometry" />
        </mxCell>
        <mxCell id="gUMU8_1j_iVRHIKr8QmO-7" style="rounded=0;orthogonalLoop=1;jettySize=auto;html=1;exitX=1;exitY=0.5;exitDx=0;exitDy=0;dashed=1;" edge="1" parent="gUMU8_1j_iVRHIKr8QmO-1" source="gUMU8_1j_iVRHIKr8QmO-10" target="gUMU8_1j_iVRHIKr8QmO-27">
          <mxGeometry relative="1" as="geometry" />
        </mxCell>
        <mxCell id="gUMU8_1j_iVRHIKr8QmO-8" value="&amp;lt;&amp;lt;extend&amp;gt;&amp;gt;" style="edgeStyle=none;rounded=0;orthogonalLoop=1;jettySize=auto;html=1;exitX=1;exitY=0.5;exitDx=0;exitDy=0;dashed=1;" edge="1" parent="gUMU8_1j_iVRHIKr8QmO-1" source="gUMU8_1j_iVRHIKr8QmO-10" target="ku1yifg66S2nyU4fcFTA-0">
          <mxGeometry x="-0.5" relative="1" as="geometry">
            <mxPoint as="offset" />
          </mxGeometry>
        </mxCell>
        <mxCell id="gUMU8_1j_iVRHIKr8QmO-9" style="edgeStyle=orthogonalEdgeStyle;rounded=0;orthogonalLoop=1;jettySize=auto;html=1;" edge="1" parent="gUMU8_1j_iVRHIKr8QmO-1" source="gUMU8_1j_iVRHIKr8QmO-10" target="gUMU8_1j_iVRHIKr8QmO-39">
          <mxGeometry relative="1" as="geometry" />
        </mxCell>
        <mxCell id="gUMU8_1j_iVRHIKr8QmO-10" value="Invite a friend to a battle" style="ellipse;whiteSpace=wrap;html=1;" vertex="1" parent="gUMU8_1j_iVRHIKr8QmO-1">
          <mxGeometry x="560" y="720" width="120" height="80" as="geometry" />
        </mxCell>
        <mxCell id="gUMU8_1j_iVRHIKr8QmO-11" style="rounded=0;orthogonalLoop=1;jettySize=auto;html=1;exitX=1;exitY=0.5;exitDx=0;exitDy=0;dashed=1;" edge="1" parent="gUMU8_1j_iVRHIKr8QmO-1" source="gUMU8_1j_iVRHIKr8QmO-14" target="gUMU8_1j_iVRHIKr8QmO-27">
          <mxGeometry relative="1" as="geometry" />
        </mxCell>
        <mxCell id="gUMU8_1j_iVRHIKr8QmO-12" value="&amp;lt;&amp;lt;extend&amp;gt;&amp;gt;" style="edgeStyle=none;rounded=0;orthogonalLoop=1;jettySize=auto;html=1;exitX=1;exitY=0.5;exitDx=0;exitDy=0;dashed=1;" edge="1" parent="gUMU8_1j_iVRHIKr8QmO-1" source="gUMU8_1j_iVRHIKr8QmO-14" target="gUMU8_1j_iVRHIKr8QmO-29">
          <mxGeometry relative="1" as="geometry" />
        </mxCell>
        <mxCell id="gUMU8_1j_iVRHIKr8QmO-13" style="edgeStyle=orthogonalEdgeStyle;rounded=0;orthogonalLoop=1;jettySize=auto;html=1;" edge="1" parent="gUMU8_1j_iVRHIKr8QmO-1" source="gUMU8_1j_iVRHIKr8QmO-14" target="gUMU8_1j_iVRHIKr8QmO-39">
          <mxGeometry relative="1" as="geometry" />
        </mxCell>
        <mxCell id="gUMU8_1j_iVRHIKr8QmO-14" value="Join a battle invited" style="ellipse;whiteSpace=wrap;html=1;" vertex="1" parent="gUMU8_1j_iVRHIKr8QmO-1">
          <mxGeometry x="560" y="600" width="120" height="80" as="geometry" />
        </mxCell>
        <mxCell id="ku1yifg66S2nyU4fcFTA-6" value="&amp;lt;&amp;lt;participate&amp;gt;&amp;gt;" style="edgeStyle=orthogonalEdgeStyle;rounded=0;orthogonalLoop=1;jettySize=auto;html=1;" edge="1" parent="gUMU8_1j_iVRHIKr8QmO-1" source="gUMU8_1j_iVRHIKr8QmO-17" target="ku1yifg66S2nyU4fcFTA-3">
          <mxGeometry x="0.6129" relative="1" as="geometry">
            <mxPoint as="offset" />
          </mxGeometry>
        </mxCell>
        <mxCell id="gUMU8_1j_iVRHIKr8QmO-17" value="Push the code" style="ellipse;whiteSpace=wrap;html=1;" vertex="1" parent="gUMU8_1j_iVRHIKr8QmO-1">
          <mxGeometry x="560" y="840" width="120" height="80" as="geometry" />
        </mxCell>
        <mxCell id="gUMU8_1j_iVRHIKr8QmO-27" value="Login" style="ellipse;whiteSpace=wrap;html=1;" vertex="1" parent="gUMU8_1j_iVRHIKr8QmO-1">
          <mxGeometry x="800" y="840" width="120" height="80" as="geometry" />
        </mxCell>
        <mxCell id="gUMU8_1j_iVRHIKr8QmO-28" value="View tournaments" style="ellipse;whiteSpace=wrap;html=1;" vertex="1" parent="gUMU8_1j_iVRHIKr8QmO-1">
          <mxGeometry x="790" y="440" width="120" height="80" as="geometry" />
        </mxCell>
        <mxCell id="gUMU8_1j_iVRHIKr8QmO-29" value="View battles&lt;br&gt;within a tournament" style="ellipse;whiteSpace=wrap;html=1;" vertex="1" parent="gUMU8_1j_iVRHIKr8QmO-1">
          <mxGeometry x="790" y="540" width="120" height="80" as="geometry" />
        </mxCell>
        <mxCell id="gUMU8_1j_iVRHIKr8QmO-30" value="&amp;lt;&amp;lt;include&amp;gt;&amp;gt;" style="text;html=1;align=center;verticalAlign=middle;resizable=0;points=[];autosize=1;strokeColor=none;fillColor=none;container=1;" vertex="1" parent="gUMU8_1j_iVRHIKr8QmO-1">
          <mxGeometry x="750" y="810" width="90" height="30" as="geometry" />
        </mxCell>
        <mxCell id="gUMU8_1j_iVRHIKr8QmO-31" style="edgeStyle=none;rounded=0;orthogonalLoop=1;jettySize=auto;html=1;entryX=0;entryY=1;entryDx=0;entryDy=0;" edge="1" parent="gUMU8_1j_iVRHIKr8QmO-1" source="gUMU8_1j_iVRHIKr8QmO-36" target="gUMU8_1j_iVRHIKr8QmO-6">
          <mxGeometry relative="1" as="geometry" />
        </mxCell>
        <mxCell id="gUMU8_1j_iVRHIKr8QmO-33" style="edgeStyle=none;rounded=0;orthogonalLoop=1;jettySize=auto;html=1;" edge="1" parent="gUMU8_1j_iVRHIKr8QmO-1" source="gUMU8_1j_iVRHIKr8QmO-36" target="gUMU8_1j_iVRHIKr8QmO-14">
          <mxGeometry relative="1" as="geometry" />
        </mxCell>
        <mxCell id="gUMU8_1j_iVRHIKr8QmO-34" style="edgeStyle=none;rounded=0;orthogonalLoop=1;jettySize=auto;html=1;" edge="1" parent="gUMU8_1j_iVRHIKr8QmO-1" source="gUMU8_1j_iVRHIKr8QmO-36" target="gUMU8_1j_iVRHIKr8QmO-10">
          <mxGeometry relative="1" as="geometry" />
        </mxCell>
        <mxCell id="gUMU8_1j_iVRHIKr8QmO-35" style="edgeStyle=none;rounded=0;orthogonalLoop=1;jettySize=auto;html=1;" edge="1" parent="gUMU8_1j_iVRHIKr8QmO-1" source="gUMU8_1j_iVRHIKr8QmO-36" target="gUMU8_1j_iVRHIKr8QmO-17">
          <mxGeometry relative="1" as="geometry" />
        </mxCell>
        <mxCell id="gUMU8_1j_iVRHIKr8QmO-36" value="STU" style="shape=umlActor;verticalLabelPosition=bottom;verticalAlign=top;html=1;outlineConnect=0;" vertex="1" parent="gUMU8_1j_iVRHIKr8QmO-1">
          <mxGeometry x="325" y="585" width="30" height="60" as="geometry" />
        </mxCell>
        <mxCell id="gUMU8_1j_iVRHIKr8QmO-38" value="&amp;lt;&amp;lt;initiate&amp;gt;&amp;gt;" style="text;html=1;align=center;verticalAlign=middle;resizable=0;points=[];autosize=1;strokeColor=none;fillColor=none;" vertex="1" parent="gUMU8_1j_iVRHIKr8QmO-1">
          <mxGeometry x="370" y="615" width="90" height="30" as="geometry" />
        </mxCell>
        <mxCell id="gUMU8_1j_iVRHIKr8QmO-39" value="Email service" style="shape=umlActor;verticalLabelPosition=bottom;verticalAlign=top;html=1;outlineConnect=0;" vertex="1" parent="gUMU8_1j_iVRHIKr8QmO-1">
          <mxGeometry x="510" y="280" width="30" height="60" as="geometry" />
        </mxCell>
        <mxCell id="gUMU8_1j_iVRHIKr8QmO-40" value="&lt;b&gt;CKB Platform&lt;/b&gt;" style="text;html=1;strokeColor=none;fillColor=none;align=center;verticalAlign=middle;whiteSpace=wrap;rounded=0;" vertex="1" parent="gUMU8_1j_iVRHIKr8QmO-1">
          <mxGeometry x="480" y="160" width="480" height="30" as="geometry" />
        </mxCell>
        <mxCell id="ku1yifg66S2nyU4fcFTA-2" value="&amp;lt;&amp;lt;extend&amp;gt;&amp;gt;" style="edgeStyle=none;rounded=0;orthogonalLoop=1;jettySize=auto;html=1;dashed=1;" edge="1" parent="gUMU8_1j_iVRHIKr8QmO-1" source="ku1yifg66S2nyU4fcFTA-0" target="gUMU8_1j_iVRHIKr8QmO-29">
          <mxGeometry relative="1" as="geometry" />
        </mxCell>
        <mxCell id="ku1yifg66S2nyU4fcFTA-0" value="Join a battle" style="ellipse;whiteSpace=wrap;html=1;" vertex="1" parent="gUMU8_1j_iVRHIKr8QmO-1">
          <mxGeometry x="880" y="720" width="120" height="80" as="geometry" />
        </mxCell>
        <mxCell id="ku1yifg66S2nyU4fcFTA-3" value="GitHub" style="shape=umlActor;verticalLabelPosition=bottom;verticalAlign=top;html=1;outlineConnect=0;" vertex="1" parent="gUMU8_1j_iVRHIKr8QmO-1">
          <mxGeometry x="510" y="1000" width="30" height="60" as="geometry" />
        </mxCell>
      </root>
    </mxGraphModel>
  </diagram>
</mxfile>
